<?xml version="1.0" standalone="no"?>
<!DOCTYPE svg PUBLIC "-//W3C//DTD SVG 20010904//EN"
 "http://www.w3.org/TR/2001/REC-SVG-20010904/DTD/svg10.dtd">
<svg version="1.0" xmlns="http://www.w3.org/2000/svg"
 width="700.000000pt" height="700.000000pt" viewBox="0 0 700.000000 700.000000"
 preserveAspectRatio="xMidYMid meet">
<metadata>
Created by potrace 1.14, written by Peter Selinger 2001-2017
</metadata>
<g transform="translate(0.000000,700.000000) scale(0.100000,-0.100000)"
fill="#000000" stroke="none">
<path d="M6 6412 c-3 -3 -6 -1166 -6 -2584 l0 -2578 33 -1 c106 -3 331 -14
472 -24 28 -2 93 -6 145 -9 52 -4 111 -9 130 -11 19 -2 64 -7 100 -10 36 -4
83 -8 105 -11 22 -2 60 -6 85 -9 38 -4 111 -12 170 -20 70 -9 138 -19 210 -30
47 -8 103 -17 125 -20 22 -3 56 -8 75 -11 93 -14 402 -80 545 -115 332 -83
671 -197 885 -297 158 -73 289 -101 456 -96 125 4 237 33 405 105 325 139 709
261 1044 331 28 5 70 14 95 20 25 5 55 11 67 13 12 2 34 6 50 9 15 4 42 9 58
11 17 3 53 10 80 15 80 16 434 68 509 75 38 4 79 8 90 10 20 3 70 9 186 20 30
3 75 8 100 10 25 3 86 8 135 11 50 3 113 7 140 9 140 10 390 23 458 24 l47 1
0 2584 0 2584 -72 -3 c-267 -13 -337 -16 -382 -20 -28 -2 -94 -7 -146 -9 -52
-3 -120 -8 -150 -11 -257 -26 -422 -44 -460 -50 -14 -2 -50 -7 -80 -10 -30 -4
-62 -9 -70 -10 -36 -6 -98 -16 -134 -20 -21 -2 -46 -6 -55 -9 -9 -3 -36 -7
-61 -10 -25 -3 -56 -8 -70 -11 -24 -5 -71 -13 -115 -21 -20 -4 -99 -20 -145
-30 -14 -3 -36 -7 -50 -10 -14 -3 -33 -7 -42 -10 -10 -3 -30 -7 -44 -10 -192
-35 -720 -200 -914 -286 -25 -11 -65 -29 -90 -40 -92 -41 -277 -136 -345 -177
l-69 -42 -41 21 c-22 11 -56 30 -75 42 -80 48 -314 160 -443 213 -206 84 -636
221 -782 249 -11 3 -81 18 -155 34 -74 17 -175 38 -225 47 -49 9 -110 20 -135
26 -25 5 -61 11 -80 14 -36 4 -95 13 -140 21 -22 3 -193 26 -305 39 -22 3 -56
8 -75 10 -19 3 -61 7 -93 10 -32 2 -77 7 -100 10 -23 3 -76 7 -117 10 -41 2
-100 7 -130 10 -69 6 -179 13 -345 20 -72 4 -158 8 -192 10 -34 2 -64 1 -67
-3z m779 -627 c22 -2 72 -7 110 -10 39 -4 81 -8 95 -10 14 -3 47 -7 74 -9 26
-3 65 -8 85 -10 20 -3 72 -10 117 -16 44 -6 91 -13 104 -15 13 -3 42 -7 65
-10 37 -6 121 -19 190 -31 356 -63 800 -187 1086 -304 137 -57 331 -152 452
-223 l47 -28 0 -1919 0 -1919 -127 43 c-363 122 -851 249 -1238 321 -94 17
-352 60 -420 69 -16 3 -48 7 -70 10 -22 3 -58 8 -80 11 -23 3 -50 7 -61 9 -11
2 -51 7 -89 11 -39 3 -81 8 -95 10 -14 2 -54 7 -90 10 -36 3 -83 8 -105 10
-22 3 -76 7 -120 11 -74 6 -111 9 -126 13 -3 0 -5 899 -5 1997 l0 1995 80 -6
c45 -3 99 -7 121 -10z m5631 -1982 c-1 -1963 -1 -1996 -20 -1999 -18 -3 -54
-5 -241 -20 -38 -2 -77 -7 -85 -9 -8 -2 -51 -7 -94 -10 -43 -4 -88 -8 -98 -10
-11 -2 -46 -7 -79 -10 -33 -4 -69 -8 -79 -10 -21 -4 -91 -14 -135 -20 -33 -4
-288 -45 -320 -51 -11 -2 -33 -6 -50 -9 -28 -5 -99 -19 -155 -30 -101 -21
-128 -27 -150 -31 -14 -3 -54 -12 -90 -20 -36 -9 -76 -18 -90 -20 -14 -3 -43
-10 -65 -16 -22 -5 -48 -12 -58 -14 -10 -2 -27 -6 -37 -9 -10 -3 -27 -8 -37
-10 -105 -21 -626 -179 -730 -222 -10 -4 -13 383 -13 1915 l0 1920 27 18 c73
48 318 169 458 227 208 86 653 226 674 213 5 -4 9 -382 9 -887 0 -484 2 -882
4 -884 2 -3 101 92 218 210 l215 215 216 -216 c129 -128 218 -210 220 -202 3
7 4 444 4 971 l-1 958 20 4 c12 2 41 7 66 9 45 5 73 8 285 30 61 6 133 12 161
13 l50 2 0 -1996z"/>
</g>
</svg>
